<?xml version="1.0" encoding="UTF-8" standalone="no"?>
<!-- Created with Inkscape (http://www.inkscape.org/) -->

<svg
   xmlns:osb="http://www.openswatchbook.org/uri/2009/osb"
   xmlns:dc="http://purl.org/dc/elements/1.1/"
   xmlns:cc="http://creativecommons.org/ns#"
   xmlns:rdf="http://www.w3.org/1999/02/22-rdf-syntax-ns#"
   xmlns:svg="http://www.w3.org/2000/svg"
   xmlns="http://www.w3.org/2000/svg"
   xmlns:sodipodi="http://sodipodi.sourceforge.net/DTD/sodipodi-0.dtd"
   xmlns:inkscape="http://www.inkscape.org/namespaces/inkscape"
   width="80.130951mm"
   height="81.64286mm"
   viewBox="0 0 80.130951 81.64286"
   version="1.1"
   id="svg8"
   sodipodi:docname="newsbreaker.svg"
   inkscape:export-filename="D:\AndroidAp$\NewsBreaker\newsbreaker.png"
   inkscape:export-xdpi="96"
   inkscape:export-ydpi="96"
   inkscape:version="0.92.2 (5c3e80d, 2017-08-06)">
  <defs
     id="defs2">
    <linearGradient
       id="linearGradient4576"
       osb:paint="solid">
      <stop
         style="stop-color:#000000;stop-opacity:1;"
         offset="0"
         id="stop4574" />
    </linearGradient>
  </defs>
  <sodipodi:namedview
     id="base"
     pagecolor="#ffffff"
     bordercolor="#666666"
     borderopacity="1.0"
     inkscape:pageopacity="0.0"
     inkscape:pageshadow="2"
     inkscape:zoom="1.4"
     inkscape:cx="167.71675"
     inkscape:cy="105.75239"
     inkscape:document-units="mm"
     inkscape:current-layer="layer1"
     showgrid="false"
     showguides="false"
     fit-margin-top="0"
     fit-margin-left="0"
     fit-margin-right="0"
     fit-margin-bottom="0"
     inkscape:window-width="1920"
     inkscape:window-height="1017"
     inkscape:window-x="-8"
     inkscape:window-y="-8"
     inkscape:window-maximized="1" />
  <metadata
     id="metadata5">
    <rdf:RDF>
      <cc:Work
         rdf:about="">
        <dc:format>image/svg+xml</dc:format>
        <dc:type
           rdf:resource="http://purl.org/dc/dcmitype/StillImage" />
        <dc:title></dc:title>
      </cc:Work>
    </rdf:RDF>
  </metadata>
  <g
     inkscape:label="Layer 1"
     inkscape:groupmode="layer"
     id="layer1"
     transform="translate(-32.694946,-54.528275)">
    <rect
       style="opacity:1;fill:#254a9f;fill-opacity:1;fill-rule:nonzero;stroke:none;stroke-width:0;stroke-miterlimit:4;stroke-dasharray:none;stroke-opacity:1;paint-order:stroke markers fill"
       id="rect4504-2"
       width="80.130951"
       height="81.64286"
       x="32.694946"
       y="54.528275"
       inkscape:export-xdpi="96"
       inkscape:export-ydpi="96" />
    <path
       style="font-style:normal;font-variant:normal;font-weight:normal;font-stretch:normal;font-size:12.28426647px;line-height:1.25;font-family:unicode;-inkscape-font-specification:unicode;letter-spacing:0px;word-spacing:0px;fill:#ffffff;fill-opacity:1;stroke:none;stroke-width:1.16071808"
       d="M 9.9863281,68.841797 V 243.57227 H 31.503906 V 97.398438 L 104.18164,243.57227 h 29.86328 v -40.36524 h -21.51953 v 11.80859 L 39.847656,68.841797 Z m 102.5390619,0 v 29.537109 h 21.51953 V 68.841797 Z m 65.65234,0 v 29.537109 h 22.17774 V 88.269531 h 32.82617 c 10.83223,0 18.88261,2.185479 24.15234,6.554688 5.34293,4.369209 8.01563,10.960901 8.01563,19.777341 0,8.89446 -2.6727,15.52728 -8.01563,19.89649 -5.26973,4.29118 -13.32011,6.43554 -24.15234,6.43554 h -31.53516 l 0.25196,19.19336 h 34.02734 c 11.9301,0 20.75011,2.61435 26.45899,7.8418 5.78207,5.14942 8.67187,13.18637 8.67187,24.10937 0,10.84501 -2.8898,18.91915 -8.67187,24.22461 -5.70888,5.22745 -14.52889,7.8418 -26.45899,7.8418 h -35.57031 v -20.9375 h -22.17774 v 40.36524 h 58.84571 c 18.37088,0 32.53433,-4.25346 42.48828,-12.75782 9.95394,-8.50435 14.92969,-20.55779 14.92969,-36.16211 0,-11.85928 -3.0365,-21.72919 -9.11133,-29.60937 -6.00164,-7.9582 -14.45591,-13.18495 -25.36133,-15.68164 9.07566,-1.56043 15.95642,-5.50057 20.64063,-11.82031 4.68418,-6.31975 7.02539,-14.82472 7.02539,-25.51368 0,-13.80981 -4.57381,-24.459142 -13.72266,-31.949215 -9.14885,-7.490073 -22.17692,-11.236328 -39.08399,-11.236328 z m -65.65234,49.650393 v 20.74219 h 21.51953 v -20.74219 z m 65.65234,0 v 20.74219 h 22.17774 v -20.74219 z m -65.65234,43.04492 v 21.9707 h 21.51953 v -21.9707 z m 65.65234,0 v 21.9707 h 22.17774 v -21.9707 z"
       transform="matrix(0.26458333,0,0,0.26458333,32.694946,54.528275)"
       id="text4801"
       inkscape:connector-curvature="0"
       inkscape:export-xdpi="96"
       inkscape:export-ydpi="96" />
  </g>
</svg>
